<?xml version="1.0" encoding="UTF-8"?>

<svg version="1.2" baseProfile="tiny" width="10.16mm" height="10.16mm" viewBox="0 0 1016 1016" preserveAspectRatio="xMidYMid" fill-rule="evenodd" clip-path="url(#presentation_clip_path)" stroke-width="28.222" stroke-linejoin="round" xmlns="http://www.w3.org/2000/svg" xmlns:ooo="http://xml.openoffice.org/svg/export" xmlns:xlink="http://www.w3.org/1999/xlink" xml:space="preserve">
 <defs class="ClipPathGroup">
  <clipPath id="presentation_clip_path" clipPathUnits="userSpaceOnUse">
   <rect x="0" y="0" width="1016" height="1016"/>
  </clipPath>
 </defs>
 <defs class="TextShapeIndex">
  <g ooo:slide="id1" ooo:id-list="id3 id4 id5 id6 id7 id8"/>
 </defs>
 <defs class="EmbeddedBulletChars">
  <g id="bullet-char-template(57356)" transform="scale(0.00048828125,-0.00048828125)">
   <path d="M 580,1141 L 1163,571 580,0 -4,571 580,1141 Z"/>
  </g>
  <g id="bullet-char-template(57354)" transform="scale(0.00048828125,-0.00048828125)">
   <path d="M 8,1128 L 1137,1128 1137,0 8,0 8,1128 Z"/>
  </g>
  <g id="bullet-char-template(10146)" transform="scale(0.00048828125,-0.00048828125)">
   <path d="M 174,0 L 602,739 174,1481 1456,739 174,0 Z M 1358,739 L 309,1346 659,739 1358,739 Z"/>
  </g>
  <g id="bullet-char-template(10132)" transform="scale(0.00048828125,-0.00048828125)">
   <path d="M 2015,739 L 1276,0 717,0 1260,543 174,543 174,936 1260,936 717,1481 1274,1481 2015,739 Z"/>
  </g>
  <g id="bullet-char-template(10007)" transform="scale(0.00048828125,-0.00048828125)">
   <path d="M 0,-2 C -7,14 -16,27 -25,37 L 356,567 C 262,823 215,952 215,954 215,979 228,992 255,992 264,992 276,990 289,987 310,991 331,999 354,1012 L 381,999 492,748 772,1049 836,1024 860,1049 C 881,1039 901,1025 922,1006 886,937 835,863 770,784 769,783 710,716 594,584 L 774,223 C 774,196 753,168 711,139 L 727,119 C 717,90 699,76 672,76 641,76 570,178 457,381 L 164,-76 C 142,-110 111,-127 72,-127 30,-127 9,-110 8,-76 1,-67 -2,-52 -2,-32 -2,-23 -1,-13 0,-2 Z"/>
  </g>
  <g id="bullet-char-template(10004)" transform="scale(0.00048828125,-0.00048828125)">
   <path d="M 285,-33 C 182,-33 111,30 74,156 52,228 41,333 41,471 41,549 55,616 82,672 116,743 169,778 240,778 293,778 328,747 346,684 L 369,508 C 377,444 397,411 428,410 L 1163,1116 C 1174,1127 1196,1133 1229,1133 1271,1133 1292,1118 1292,1087 L 1292,965 C 1292,929 1282,901 1262,881 L 442,47 C 390,-6 338,-33 285,-33 Z"/>
  </g>
  <g id="bullet-char-template(9679)" transform="scale(0.00048828125,-0.00048828125)">
   <path d="M 813,0 C 632,0 489,54 383,161 276,268 223,411 223,592 223,773 276,916 383,1023 489,1130 632,1184 813,1184 992,1184 1136,1130 1245,1023 1353,916 1407,772 1407,592 1407,412 1353,268 1245,161 1136,54 992,0 813,0 Z"/>
  </g>
  <g id="bullet-char-template(8226)" transform="scale(0.00048828125,-0.00048828125)">
   <path d="M 346,457 C 273,457 209,483 155,535 101,586 74,649 74,723 74,796 101,859 155,911 209,963 273,989 346,989 419,989 480,963 531,910 582,859 608,796 608,723 608,648 583,586 532,535 482,483 420,457 346,457 Z"/>
  </g>
  <g id="bullet-char-template(8211)" transform="scale(0.00048828125,-0.00048828125)">
   <path d="M -4,459 L 1135,459 1135,606 -4,606 -4,459 Z"/>
  </g>
 </defs>
 <defs class="TextEmbeddedBitmaps"/>
 <g>
  <g id="id2" class="Master_Slide">
   <g id="bg-id2" class="Background"/>
   <g id="bo-id2" class="BackgroundObjects"/>
  </g>
 </g>
 <g class="SlideGroup">
  <g>
   <g id="id1" class="Slide" clip-path="url(#presentation_clip_path)">
    <g class="Page">
     <g class="Group">
      <g class="com.sun.star.drawing.CustomShape">
       <g id="id3">
        <path fill="rgb(255,255,255)" stroke="none" d="M 18833,12060 C 19078,12060 19265,12250 19265,12499 19265,12748 19078,12939 18833,12939 18588,12939 18401,12748 18401,12499 18401,12250 18588,12060 18833,12060 Z M 18401,12060 L 18401,12060 Z M 19267,12940 L 19267,12940 Z"/>
        <path fill="none" stroke="rgb(255,255,255)" d="M 18833,12060 C 19078,12060 19265,12250 19265,12499 19265,12748 19078,12939 18833,12939 18588,12939 18401,12748 18401,12499 18401,12250 18588,12060 18833,12060 Z"/>
        <path fill="none" stroke="rgb(255,255,255)" d="M 18401,12060 L 18401,12060 Z"/>
        <path fill="none" stroke="rgb(255,255,255)" d="M 19267,12940 L 19267,12940 Z"/>
       </g>
      </g>
      <g class="com.sun.star.drawing.CustomShape">
       <g id="id4">
        <path fill="rgb(255,211,32)" stroke="none" d="M 18837,12050 C 19086,12050 19277,12243 19277,12495 19277,12747 19086,12940 18837,12940 18588,12940 18398,12747 18398,12495 18398,12243 18588,12050 18837,12050 Z M 18836,12088 C 19063,12088 19237,12263 19237,12493 19237,12723 19063,12899 18836,12899 18609,12899 18436,12723 18436,12493 18436,12263 18609,12088 18836,12088 Z M 18398,12050 L 18398,12050 Z M 19278,12941 L 19278,12941 Z"/>
        <path fill="none" stroke="rgb(51,51,51)" d="M 18837,12050 C 19086,12050 19277,12243 19277,12495 19277,12747 19086,12940 18837,12940 18588,12940 18398,12747 18398,12495 18398,12243 18588,12050 18837,12050 Z"/>
        <path fill="none" stroke="rgb(51,51,51)" d="M 18836,12088 C 19063,12088 19237,12263 19237,12493 19237,12723 19063,12899 18836,12899 18609,12899 18436,12723 18436,12493 18436,12263 18609,12088 18836,12088 Z"/>
        <path fill="none" stroke="rgb(51,51,51)" d="M 18398,12050 L 18398,12050 Z"/>
        <path fill="none" stroke="rgb(51,51,51)" d="M 19278,12941 L 19278,12941 Z"/>
       </g>
      </g>
      <g class="com.sun.star.drawing.CustomShape">
       <g id="id5">
        <path fill="rgb(51,51,51)" stroke="none" d="M 18457,12495 L 18774,12522 18569,12768 18812,12561 18841,12881 18867,12562 19112,12768 18907,12523 19225,12495 18907,12468 19112,12222 18869,12429 18841,12110 18814,12428 18569,12222 18774,12467 18457,12495 18457,12495 Z M 18457,12110 L 18457,12110 Z M 19225,12881 L 19225,12881 Z"/>
        <path fill="none" stroke="rgb(51,51,51)" d="M 18457,12495 L 18774,12522 18569,12768 18812,12561 18841,12881 18867,12562 19112,12768 18907,12523 19225,12495 18907,12468 19112,12222 18869,12429 18841,12110 18814,12428 18569,12222 18774,12467 18457,12495 18457,12495 Z"/>
        <path fill="none" stroke="rgb(51,51,51)" d="M 18457,12110 L 18457,12110 Z"/>
        <path fill="none" stroke="rgb(51,51,51)" d="M 19225,12881 L 19225,12881 Z"/>
       </g>
      </g>
     </g>
     <g class="com.sun.star.drawing.CustomShape">
      <g id="id6">
       <path fill="rgb(255,255,255)" stroke="none" d="M 520,62 C 765,62 952,252 952,501 952,750 765,941 520,941 275,941 88,750 88,501 88,252 275,62 520,62 Z M 88,62 L 88,62 Z M 954,942 L 954,942 Z"/>
       <path fill="none" stroke="rgb(255,255,255)" d="M 520,62 C 765,62 952,252 952,501 952,750 765,941 520,941 275,941 88,750 88,501 88,252 275,62 520,62 Z"/>
       <path fill="none" stroke="rgb(255,255,255)" d="M 88,62 L 88,62 Z"/>
       <path fill="none" stroke="rgb(255,255,255)" d="M 954,942 L 954,942 Z"/>
      </g>
     </g>
     <g class="com.sun.star.drawing.CustomShape">
      <g id="id7">
       <path fill="rgb(102,102,102)" stroke="none" d="M 524,52 C 773,52 964,245 964,497 964,749 773,942 524,942 275,942 85,749 85,497 85,245 275,52 524,52 Z M 523,90 C 750,90 924,265 924,495 924,725 750,901 523,901 296,901 123,725 123,495 123,265 296,90 523,90 Z M 85,52 L 85,52 Z M 965,943 L 965,943 Z"/>
       <path fill="none" stroke="rgb(51,51,51)" d="M 524,52 C 773,52 964,245 964,497 964,749 773,942 524,942 275,942 85,749 85,497 85,245 275,52 524,52 Z"/>
       <path fill="none" stroke="rgb(51,51,51)" d="M 523,90 C 750,90 924,265 924,495 924,725 750,901 523,901 296,901 123,725 123,495 123,265 296,90 523,90 Z"/>
       <path fill="none" stroke="rgb(51,51,51)" d="M 85,52 L 85,52 Z"/>
       <path fill="none" stroke="rgb(51,51,51)" d="M 965,943 L 965,943 Z"/>
      </g>
     </g>
     <g class="com.sun.star.drawing.CustomShape">
      <g id="id8">
       <path fill="rgb(255,204,0)" stroke="none" d="M 144,497 L 461,524 256,770 499,563 528,883 554,564 799,770 594,525 912,497 594,470 799,224 556,431 528,112 501,430 256,224 461,469 144,497 144,497 Z M 144,112 L 144,112 Z M 912,883 L 912,883 Z"/>
       <path fill="none" stroke="rgb(51,51,51)" d="M 144,497 L 461,524 256,770 499,563 528,883 554,564 799,770 594,525 912,497 594,470 799,224 556,431 528,112 501,430 256,224 461,469 144,497 144,497 Z"/>
       <path fill="none" stroke="rgb(51,51,51)" d="M 144,112 L 144,112 Z"/>
       <path fill="none" stroke="rgb(51,51,51)" d="M 912,883 L 912,883 Z"/>
      </g>
     </g>
    </g>
   </g>
  </g>
 </g>
</svg>